<svg t="1767080440025" class="icon" viewBox="0 0 1024 1024" version="1.1" xmlns="http://www.w3.org/2000/svg" p-id="12589" width="200" height="200">
  <path d="M512 512m-256 0a256 256 0 1 0 512 0 256 256 0 1 0-512 0Z" fill="#C3D2FB" p-id="12590"></path>
  <path d="M512 128m-42.666667 0a42.666667 42.666667 0 1 0 85.333334 0 42.666667 42.666667 0 1 0-85.333334 0Z" fill="#C2D7FF" p-id="12591"></path>
  <path d="M234.666667 234.666667m-42.666667 0a42.666667 42.666667 0 1 0 85.333333 0 42.666667 42.666667 0 1 0-85.333333 0Z" fill="#A9C6FF" p-id="12595"></path>
   <path d="M128 512m-42.666667 0a42.666667 42.666667 0 1 0 85.333334 0 42.666667 42.666667 0 1 0-85.333334 0Z" fill="#7CA9FF" p-id="12594"></path>
  <path d="M234.666667 789.333333m-42.666667 0a42.666667 42.666667 0 1 0 85.333333 0 42.666667 42.666667 0 1 0-85.333333 0Z" fill="#5C92FF" p-id="12598"></path>
  <path d="M512 896m-42.666667 0a42.666667 42.666667 0 1 0 85.333334 0 42.666667 42.666667 0 1 0-85.333334 0Z" fill="#3F76FF" p-id="12592"></path>
   <path d="M789.333333 789.333333m-42.666666 0a42.666667 42.666667 0 1 0 85.333333 0 42.666667 42.666667 0 1 0-85.333333 0Z" fill="#2D5FE3" p-id="12596"></path>
  <path d="M896 512m-42.666667 0a42.666667 42.666667 0 1 0 85.333334 0 42.666667 42.666667 0 1 0-85.333334 0Z" fill="#1E4BCC" p-id="12593"></path>
  <path d="M789.333333 234.666667m-42.666666 0a42.666667 42.666667 0 1 0 85.333333 0 42.666667 42.666667 0 1 0-85.333333 0Z" fill="#1A42B8" p-id="12597"></path>
</svg>

